<?xml version="1.0" encoding="UTF-8"?>
<!DOCTYPE svg PUBLIC "-//W3C//DTD SVG 1.1//EN" "http://www.w3.org/Graphics/SVG/1.1/DTD/svg11.dtd">
<!-- Creator: CorelDRAW Home & Student X7 -->
<svg xmlns="http://www.w3.org/2000/svg" xml:space="preserve" width="184px" height="70px" version="1.1" style="shape-rendering:geometricPrecision; text-rendering:geometricPrecision; image-rendering:optimizeQuality; fill-rule:evenodd; clip-rule:evenodd"
viewBox="0 0 184 70"
 xmlns:xlink="http://www.w3.org/1999/xlink">
 <defs>
  <style type="text/css">
   <![CDATA[
    .fil0 {fill:none;fill-rule:nonzero}
    .fil2 {fill:#54775E}
    .fil1 {fill:#54775E;fill-rule:nonzero}
   ]]>
  </style>
 </defs>
 <g id="Warstwa_x0020_1">
  <metadata id="CorelCorpID_0Corel-Layer"/>
  <polygon class="fil0" points="0,0 184,0 184,70 0,70 "/>
  <path class="fil1" d="M92 6l0 0c0,0 0,0 0,0 2,0 3,0 4,0 5,1 9,1 11,5 0,0 0,0 0,0 0,0 0,0 0,0 -3,-3 -6,-4 -11,-4 -1,0 -2,0 -4,-1 0,0 0,0 0,0l0 0z"/>
  <path class="fil1" d="M102 14c0,-1 3,-4 0,-6l0 0 0 0c-3,2 0,5 0,6l0 0c0,0 0,0 0,0 0,0 0,0 0,0l0 0z"/>
  <path class="fil1" d="M101 10c0,-1 0,-2 1,-2 0,0 0,0 0,0 0,0 0,0 0,0 1,1 2,2 2,3 -1,1 -1,2 -2,3 0,0 0,0 0,0 0,0 0,0 0,0 0,0 0,0 0,0 0,-1 -1,-2 -1,-4zm1 -2c0,1 -1,1 -1,2 0,2 1,3 1,3 0,0 1,-1 1,-2 0,-1 0,-2 -1,-3z"/>
  <path class="fil1" d="M106 16c0,-1 3,-2 1,-5l0 0 0 0c-3,2 -1,4 -1,5 0,0 0,0 0,0 0,0 0,0 0,0z"/>
  <path class="fil1" d="M105 13c1,-1 1,-2 2,-2 0,0 0,0 0,0 0,0 0,0 0,0 1,1 1,1 1,2 -1,2 -2,2 -2,3 0,0 0,0 0,0 0,0 0,0 0,0 0,-1 -1,-2 -1,-3zm2 -2c-1,1 -1,1 -1,2 -1,1 0,2 0,2 0,0 1,-1 1,-2 1,0 0,-1 0,-2z"/>
  <path class="fil1" d="M111 13c0,0 -1,-3 -4,-2l0 0 0 0c1,3 4,2 4,2 0,0 0,0 0,0 0,0 0,0 0,0z"/>
  <g>
   <path class="fil1" d="M107 11c0,0 0,0 0,0 1,-1 2,0 3,0 1,1 1,2 2,2 0,0 0,0 0,0 0,0 0,0 0,0 0,0 0,0 0,0 0,0 0,0 0,0 0,0 0,0 0,0l0 0 -5 -2zm5 2l0 0c0,0 0,0 0,0 0,0 0,0 0,0 0,0 -1,0 -1,0 0,0 0,0 0,0 0,0 -1,0 -2,0 -1,0 -2,-1 -2,-2 0,0 0,0 0,0 0,0 0,0 0,0l5 2zm-1 0c0,-1 -1,-3 -4,-2 1,1 1,1 2,2 1,0 2,0 2,0z"/>
  </g>
  <path class="fil1" d="M108 4c0,0 -4,1 -4,4l0 0 0 0c4,0 4,-3 4,-4 0,0 0,0 0,0 0,0 0,0 0,0z"/>
  <path class="fil1" d="M104 8c1,-3 4,-4 4,-4 0,0 0,0 0,0 1,0 1,0 1,0 0,0 0,0 0,0 0,0 0,0 0,0 0,0 0,0 0,0 0,0 0,0 0,0 0,0 0,0 0,0 0,0 0,1 0,1 -1,1 -1,4 -5,4 0,0 0,0 0,0 0,0 0,0 0,-1 0,0 0,0 0,0zm4 -4c0,0 -3,1 -4,4 0,0 0,0 0,0 3,0 4,-2 4,-3 0,0 0,-1 0,-1z"/>
  <path class="fil1" d="M101 2c0,0 -5,0 -5,5l1 0 -1 0c5,0 5,-5 5,-5l0 0c0,0 0,0 0,0 0,0 0,0 0,0l0 0z"/>
  <path class="fil1" d="M96 6c1,-4 5,-4 5,-4 0,0 0,0 0,0 0,-1 0,0 0,0 0,0 0,0 0,0 0,0 0,0 0,0 0,0 0,0 0,0 1,0 1,0 1,0 0,0 0,0 0,0 0,0 0,0 -1,0 0,0 0,0 0,0 0,2 -1,5 -4,5 0,0 -1,0 -1,0 0,0 0,0 0,0 0,-1 0,-1 0,-1zm5 -4c-1,0 -4,0 -4,4 0,0 0,0 0,0 3,0 4,-3 4,-4 0,0 0,0 0,0z"/>
  <path class="fil1" d="M98 13c-1,0 -5,-2 -3,-7l0 0 0 0c4,2 3,6 3,7l0 0c0,0 0,0 0,0 0,0 0,0 0,0l0 0z"/>
  <path class="fil1" d="M94 7c0,0 0,0 0,-1 0,0 0,0 1,0 0,0 0,0 0,0 3,2 3,5 3,6 0,0 0,1 0,1 0,0 0,0 0,0 0,0 0,0 0,0 0,0 0,0 0,0 0,0 0,0 -1,0 0,0 -3,-2 -3,-6zm1 0c0,0 -1,0 -1,0 0,4 3,5 3,5 1,0 1,0 1,0 0,-1 0,-4 -3,-5z"/>
  <path class="fil1" d="M91 6c-1,1 -2,1 -3,1 -5,1 -9,1 -11,4 0,1 0,1 0,1 0,-1 0,-1 0,-1 2,-3 6,-4 10,-5 2,0 3,0 4,0 1,0 1,0 1,0 0,0 0,0 -1,0z"/>
  <path class="fil1" d="M82 14c0,0 0,0 0,0 0,0 2,-3 -1,-6l0 0 0 0c-2,3 0,6 1,6z"/>
  <path class="fil1" d="M82 14c0,0 0,0 0,0 0,0 -1,0 -1,0 0,0 0,0 0,0 0,0 -1,-1 -1,-3 0,-1 0,-2 1,-3 0,0 0,0 0,0 1,0 1,0 1,0 0,1 1,1 1,2 0,2 -1,4 -1,4zm-2 -3c1,1 1,2 2,3 0,-1 1,-2 1,-4 0,-1 -1,-1 -2,-2 0,1 -1,2 -1,3z"/>
  <path class="fil1" d="M78 16c0,0 0,0 0,0 0,0 0,0 0,0 0,0 1,-3 -1,-5l0 0 0 0c-2,3 1,5 1,5z"/>
  <path class="fil1" d="M78 16c0,0 0,0 0,0 0,0 0,0 0,0 -1,0 -2,-1 -2,-2 0,-1 0,-2 1,-3 0,0 0,0 0,0 0,0 0,0 0,0 1,1 1,1 1,2 1,2 0,3 0,3zm-2 -2c1,1 1,2 2,2 0,-1 0,-2 0,-3 0,0 0,-1 -1,-2 -1,1 -1,2 -1,3z"/>
  <path class="fil1" d="M72 13c0,0 0,0 0,0 0,0 0,0 0,0 1,0 4,1 5,-2l0 0 0 0c-3,-1 -5,2 -5,2z"/>
  <path class="fil1" d="M77 11c0,0 0,0 0,0 -1,1 -1,2 -2,2 -1,1 -2,0 -3,0 0,0 0,0 0,0 0,0 0,0 0,0l0 0c0,0 0,0 0,0l0 0 0 0c0,0 0,0 0,0 0,0 0,0 0,0l0 0c0,0 0,0 0,0 0,0 0,0 0,0 0,0 1,-1 1,-1 1,-1 2,-1 4,-1 0,0 0,0 0,0zm-2 2c1,0 1,-1 2,-2 -3,-1 -4,2 -5,2 1,0 2,1 3,0z"/>
  <path class="fil1" d="M75 5c0,0 0,0 0,0 0,0 0,0 0,0 0,0 0,4 4,4l0 0 0 0c0,-4 -4,-4 -4,-4z"/>
  <path class="fil1" d="M79 9c0,0 0,0 0,0 0,0 0,0 0,0 -3,0 -4,-3 -4,-4 0,0 0,0 0,0 0,0 0,0 0,0 0,0 0,0 0,0 0,0 0,0 0,0 0,0 0,0 0,-1 0,0 0,0 0,0 0,0 0,0 0,0 0,0 0,0 0,0 1,1 4,1 4,4 0,0 0,0 0,1zm-4 -4c0,1 1,4 4,4 0,-1 0,-1 0,-1 0,-3 -3,-3 -4,-3 0,0 0,0 0,0z"/>
  <path class="fil1" d="M82 2c0,0 0,0 0,0 0,0 0,0 0,0l0 0c0,0 1,5 5,5l0 0 0 0c0,-5 -4,-5 -5,-5l0 0z"/>
  <path class="fil1" d="M87 7c0,0 0,0 0,0 0,0 0,0 0,0 -4,0 -5,-3 -5,-4 0,-1 0,-1 0,-1 0,0 0,0 0,0 0,0 0,0 0,0 0,0 0,0 0,0 0,0 0,0 0,0 0,0 0,0 0,0 0,0 0,0 0,0 0,0 0,0 0,0 0,0 0,0 0,0 1,0 5,0 5,4 0,0 0,0 0,1zm-5 -5c1,2 2,5 5,5 0,-1 0,-1 0,-1 -1,-3 -4,-4 -5,-4 0,0 0,0 0,0z"/>
  <path class="fil1" d="M86 13c0,0 0,0 0,0 0,0 0,0 0,0 0,-1 -1,-5 3,-6l0 0 0 0c2,4 -3,6 -3,6z"/>
  <path class="fil1" d="M86 13c0,0 0,0 0,0 0,0 0,0 0,0 0,0 0,0 0,0 0,0 0,0 0,0 0,0 0,-1 0,-1 0,-1 -1,-4 3,-6 0,0 0,0 0,0 0,0 0,0 0,0 0,1 0,1 0,1 1,4 -2,6 -3,6zm0 -1c0,0 0,0 0,1 1,-1 4,-2 3,-5 0,-1 0,-1 0,-1 -3,1 -3,4 -3,5z"/>
  <path class="fil1" d="M91 62c0,0 0,0 0,0 -1,0 -3,0 -4,0 -5,-1 -8,-2 -11,-6 0,0 0,0 0,0 1,0 1,0 1,0 2,4 5,4 10,5 1,0 3,1 4,1 0,0 0,0 0,0z"/>
  <path class="fil1" d="M82 54c-1,0 -3,3 -1,6l0 0 0 0c3,-3 1,-6 1,-6l0 0c0,0 0,0 0,0 0,0 0,0 0,0l0 0z"/>
  <path class="fil1" d="M83 58c-1,1 -1,1 -2,2 0,0 0,0 0,0 0,0 0,0 0,0 -1,-1 -1,-2 -1,-4 0,-1 1,-2 1,-2 0,0 0,0 0,0 0,0 0,0 1,0 0,0 0,0 0,0 0,0 1,2 1,4zm-2 2c1,-1 1,-2 1,-2 1,-2 0,-4 0,-4 -1,0 -1,1 -2,2 0,2 0,3 1,4z"/>
  <path class="fil1" d="M78 52c0,0 -3,2 -1,4l0 0 0 0c2,-1 1,-4 1,-4 0,0 0,0 0,0 0,0 0,0 0,0z"/>
  <path class="fil1" d="M78 54c0,1 0,2 -1,2 0,0 0,0 0,0 0,0 0,0 0,0 -1,0 -1,-1 -1,-2 0,-1 1,-2 2,-2 0,0 0,0 0,0 0,0 0,0 0,0 0,0 1,1 0,2zm-1 2c0,0 1,-1 1,-2 0,-1 0,-2 0,-2 -1,0 -1,1 -2,2 0,1 0,1 1,2z"/>
  <path class="fil1" d="M72 54c0,0 2,3 5,2l0 0 0 0c-2,-3 -5,-2 -5,-2 0,0 0,0 0,0 0,0 0,0 0,0z"/>
  <g>
   <path class="fil1" d="M77 56c0,0 0,0 0,0 -2,1 -3,1 -4,0 0,-1 -1,-2 -1,-2 0,0 0,0 0,0 0,0 0,0 0,0 0,0 0,0 0,0 0,0 0,0 0,0 0,0 0,0 0,0l0 0 5 2zm-5 -2l0 0c0,0 0,0 0,0 0,0 0,0 0,0 0,0 0,0 0,0 0,0 0,0 0,0 0,0 2,0 3,0 1,1 1,1 2,2 0,0 0,0 0,0 0,0 0,0 0,0l-5 -2zm0 0c1,1 2,3 4,2 0,-1 0,-1 -1,-2 -1,0 -2,0 -3,0z"/>
  </g>
  <path class="fil1" d="M75 63c0,0 4,0 4,-4l0 0 0 0c-4,0 -4,4 -4,4 0,0 0,0 0,0 0,0 0,0 0,0z"/>
  <path class="fil1" d="M79 60c-1,3 -4,3 -4,3 0,0 0,0 0,0 0,0 0,0 0,0 0,0 0,0 0,0 0,0 0,0 0,0 0,0 0,0 0,0 0,0 0,0 0,0 0,0 0,0 0,0 0,0 0,0 0,-1 0,-1 1,-3 4,-3 0,0 0,0 0,0 0,0 0,0 0,0 0,0 0,1 0,1zm-4 3c1,0 3,-1 4,-3 0,0 0,-1 0,-1 -3,0 -4,2 -4,3 0,1 0,1 0,1z"/>
  <path class="fil1" d="M82 66c0,0 5,0 5,-5l0 0 0 0c-5,0 -5,5 -5,5l0 0c0,0 0,0 0,0 0,0 0,0 0,0l0 0z"/>
  <path class="fil1" d="M87 62c-1,4 -5,4 -5,4 0,0 0,0 0,0 0,0 0,0 0,0 0,0 0,0 0,0 0,0 0,0 0,0 0,0 -1,0 -1,0 0,0 0,0 0,0 0,0 0,0 0,0 0,0 0,0 1,0 0,0 0,0 0,-1 0,-1 1,-4 5,-4 0,0 0,0 0,0 0,0 0,0 0,0 0,1 0,1 0,1zm-5 4c1,0 4,-1 5,-4 0,0 0,0 0,-1 -4,0 -5,3 -5,4 0,1 0,1 0,1z"/>
  <path class="fil1" d="M86 55c0,0 4,2 3,7l0 0 0 0c-4,-2 -3,-6 -3,-7l0 0c0,0 0,0 0,0 0,0 0,0 0,0l0 0z"/>
  <path class="fil1" d="M89 61c0,0 0,0 0,1 0,0 0,0 0,0 0,0 0,0 0,0 -4,-2 -4,-5 -3,-6 0,-1 0,-1 0,-1 0,0 0,0 0,0 0,0 0,0 0,0 0,0 0,0 0,0 0,0 0,0 0,0 1,0 4,2 3,6zm0 0c0,0 0,0 0,0 1,-4 -2,-5 -3,-6 0,0 0,1 0,1 0,1 -1,4 3,5z"/>
  <path class="fil1" d="M92 62c1,0 2,-1 3,-1 5,-1 9,-2 11,-5 0,0 0,0 0,0 0,0 0,0 0,0 -2,4 -6,4 -10,6 -2,0 -3,0 -4,0 0,1 -1,0 -1,0 0,0 0,0 1,0z"/>
  <path class="fil1" d="M101 54c0,0 0,0 0,0 0,0 -3,3 0,6l0 0 0 0c3,-3 0,-6 0,-6z"/>
  <path class="fil1" d="M101 54c0,0 0,0 0,0 0,0 0,0 0,0 0,0 0,0 0,0 0,0 1,1 1,2 1,1 0,3 0,4 -1,0 -1,0 -1,0 0,0 0,0 0,0 0,-1 -1,-2 -1,-2 -1,-2 1,-4 1,-4zm1 2c0,-1 -1,-2 -1,-2 0,0 -1,2 -1,3 0,1 1,2 1,2 1,-1 1,-2 1,-3z"/>
  <path class="fil1" d="M104 51c0,0 0,0 0,0 0,0 0,0 0,0 0,1 -1,3 2,5l0 0 0 0c1,-3 -1,-5 -2,-5z"/>
  <path class="fil1" d="M104 51c0,0 0,0 0,0 0,0 1,0 1,0 0,0 1,1 1,3 0,0 0,1 0,2 0,0 0,0 0,0 0,0 0,0 0,0 -1,-1 -2,-1 -2,-2 0,-1 0,-2 0,-3zm2 3c0,-2 -1,-2 -1,-2 -1,0 -1,1 -1,2 0,1 1,1 2,2 0,-1 0,-2 0,-2z"/>
  <path class="fil1" d="M110 54c0,0 0,0 0,0 0,0 0,0 0,0 0,-1 -3,-1 -4,2l0 0 0 0c3,1 4,-2 4,-2z"/>
  <path class="fil1" d="M106 56c0,0 0,0 0,0 0,-1 1,-2 1,-2 2,-1 3,-1 3,-1 0,0 0,0 0,0 0,0 0,0 0,0l0 1c0,0 0,0 0,0l0 0c0,0 0,0 0,0l0 0c0,0 0,0 0,0l0 0c0,0 0,0 0,0 0,0 0,0 0,0 0,0 0,1 -1,1 -1,1 -2,1 -3,1 0,0 0,0 0,0zm1 -2c0,0 -1,1 -1,2 3,0 4,-2 4,-2 0,0 -1,-1 -3,0z"/>
  <path class="fil1" d="M108 62c0,0 0,0 0,0 0,0 0,0 0,0 0,0 -1,-4 -5,-3l0 0 0 0c1,3 5,3 5,3z"/>
  <path class="fil1" d="M103 59c0,0 0,0 0,0 0,0 0,0 0,0 4,-1 5,2 5,3 0,0 0,0 0,0 0,0 0,0 0,0 0,0 0,0 0,0 0,0 0,0 0,0 0,1 0,1 0,1 0,0 0,0 0,0 0,0 0,0 0,0 0,0 0,0 0,0 -1,0 -4,-1 -4,-3 -1,-1 -1,-1 -1,-1zm5 3c0,-1 -1,-3 -4,-3 0,0 0,0 0,0 0,3 3,3 4,3 0,0 0,0 0,0z"/>
  <path class="fil1" d="M101 66c0,0 0,0 0,0 0,0 0,0 0,0l0 0c0,-1 -1,-5 -5,-5l0 0 0 0c0,5 5,5 5,5l0 0z"/>
  <path class="fil1" d="M96 61c0,0 0,0 0,0 0,0 0,0 0,0 4,0 5,3 5,4 0,0 0,1 0,1 0,0 0,0 0,0 0,0 0,0 0,0 0,0 0,0 0,0 0,0 0,0 0,0 0,0 0,0 0,0 0,0 0,0 0,0 0,0 0,0 0,0 0,0 0,0 0,0 0,0 -4,0 -5,-4 0,0 0,0 0,-1zm5 4c0,-1 -2,-4 -5,-4 0,1 0,1 0,1 1,3 4,4 5,4 0,-1 0,-1 0,-1z"/>
  <path class="fil1" d="M96 55c0,0 0,0 0,0 0,0 0,0 0,0 1,0 2,5 -2,7l0 0 0 0c-2,-4 2,-7 2,-7z"/>
  <path class="fil1" d="M96 55c0,0 0,0 0,0 0,0 0,0 0,0 0,0 0,0 0,0 0,0 0,0 0,0 1,0 1,0 1,1 0,1 0,4 -3,6 0,0 0,0 0,0 0,0 0,0 0,0 0,-1 0,-1 -1,-1 0,-4 3,-6 3,-6zm0 1c0,0 0,-1 0,-1 0,1 -3,3 -2,6 0,0 0,0 0,0 3,-1 3,-4 2,-5z"/>
  <path class="fil2" d="M18 25c-4,0 -7,0 -7,0l0 16 6 0 0 -5c0,0 1,0 2,0 4,0 6,-2 6,-6 0,-3 -2,-5 -7,-5zm-1 7l0 -3 1 0c1,0 1,1 1,1 0,1 0,2 -1,2l-1 0zm16 -7l-6 0 0 16 6 0 0 -16zm8 0l-5 0 0 16 12 0 0 -5 -7 0 0 -11zm19 0l-7 0 -5 16 7 0 0 -2 3 0 1 2 6 0c0,0 -5,-16 -5,-16zm-4 10l1 -4 0 4 -1 0zm8 -10l0 5 5 0 0 11 5 0 0 -11 5 0 0 -5 -15 0zm22 10l6 0 0 -4 -6 0 0 -1 7 0 0 -5 -12 0 0 16 12 0 0 -5 -7 0 0 -1zm14 2c-2,0 -4,-2 -4,-2l-2 3c0,0 2,3 7,3 4,0 6,-2 6,-5 0,-5 -6,-5 -6,-6 0,0 1,-1 1,-1 2,0 3,2 3,2l2 -4c0,0 -2,-2 -6,-2 -4,0 -6,2 -6,5 0,5 6,5 6,6 0,0 -1,1 -1,1zm8 -12l0 5 4 0 0 11 6 0 0 -11 4 0 0 -5 -14 0zm26 8c0,2 -1,3 -2,3 -2,0 -3,-1 -3,-3 0,-2 1,-3 3,-3 1,0 2,1 2,3zm7 0c0,-5 -4,-8 -9,-8 -5,0 -9,3 -9,8 0,5 4,8 9,8 5,0 9,-3 9,-8zm0 -8l0 5 5 0 0 11 5 0 0 -11 5 0 0 -5 -15 0zm24 11c-1,0 -2,-1 -2,-2l0 -9 -5 0 0 9c0,4 3,7 7,7 5,0 8,-3 8,-7l0 -9 -6 0 0 9c0,1 -1,2 -2,2z"/>
 </g>
</svg>
