<?xml version="1.0" encoding="UTF-8"?>
<!DOCTYPE svg PUBLIC "-//W3C//DTD SVG 1.1//EN" "http://www.w3.org/Graphics/SVG/1.1/DTD/svg11.dtd">
<!-- Creator: CorelDRAW Home & Student X7 -->
<svg xmlns="http://www.w3.org/2000/svg" xml:space="preserve" width="36.1057mm" height="35.2734mm" version="1.1" style="shape-rendering:geometricPrecision; text-rendering:geometricPrecision; image-rendering:optimizeQuality; fill-rule:evenodd; clip-rule:evenodd"
viewBox="0 0 3610 3527"
 xmlns:xlink="http://www.w3.org/1999/xlink">
 <defs>
  <style type="text/css">
   <![CDATA[
    .fil0 {fill:#35B52A;fill-rule:nonzero}
    .fil1 {fill:#707070;fill-rule:nonzero}
   ]]>
  </style>
 </defs>
 <g id="Warstwa_x0020_1">
  <metadata id="CorelCorpID_0Corel-Layer"/>
  <g id="_221378832">
   <g>
    <path class="fil0" d="M3589 2412l-724 -1143c-25,-37 -74,-52 -114,-27l-1697 982c-40,25 -53,74 -31,114l721 1146c21,40 74,55 111,31l1706 -992c37,-22 52,-71 28,-111l0 0z"/>
   </g>
  </g>
  <g id="_221379648">
   <g>
    <path class="fil1" d="M3598 2203l-416 -712c16,-6 34,-12 46,-22 40,-21 74,-52 96,-83 46,-61 46,-120 40,-157 0,-3 0,-9 -3,-12 9,-3 18,-6 24,-12 71,-40 121,-114 130,-191 9,-105 -49,-198 -126,-259 43,-120 55,-247 30,-379 -18,-120 -74,-327 -209,-370 -22,-9 -49,-9 -68,6 -21,13 -37,34 -40,59l-3 37c-9,58 -12,80 -46,120 -37,37 -80,77 -130,117 -107,80 -218,154 -332,219 -108,61 -231,132 -302,255 -65,118 -77,241 -37,361l-739 422c-87,-96 -197,-145 -336,-148 -142,0 -265,68 -373,129 -114,65 -234,124 -357,173 -62,25 -117,43 -170,55 -52,10 -70,0 -126,-21l-37 -16c-21,-9 -49,-6 -71,3 -21,13 -34,34 -40,56 -27,139 127,289 219,366 105,87 222,139 348,164 15,95 68,194 163,234 74,34 164,28 234,-12 10,-7 16,-10 25,-16 0,3 3,6 6,9 31,25 83,53 160,44 37,-4 81,-16 121,-37 15,-10 27,-19 43,-31l416 711c21,40 70,53 110,31l1719 -983c40,-21 56,-70 31,-110l0 0zm-1161 -1297l0 0c49,-86 145,-142 240,-197 120,-68 237,-145 348,-231 62,-47 111,-90 151,-136 22,-25 37,-46 49,-68 13,37 22,77 31,127 22,123 6,237 -46,345 -22,43 -3,92 37,114 52,24 108,83 102,132 -4,25 -22,52 -50,68 -9,6 -34,18 -58,9 -40,-18 -83,-3 -105,37 -19,37 -9,83 28,108 21,15 34,28 37,40 0,9 -6,21 -13,31 -18,24 -49,46 -67,49 -3,0 -7,0 -10,-3 -9,-9 -21,-16 -34,-19l-221 -382c-25,-40 -74,-52 -114,-30l-342 194c-9,-62 0,-124 37,-188l0 0zm-1223 1506l0 0c3,6 0,6 0,9 -12,16 -46,31 -77,34 -9,0 -25,0 -31,-6 -9,-6 -18,-25 -18,-49 -4,-43 -40,-77 -84,-80 -43,0 -80,30 -83,74 -3,21 -27,37 -37,43 -27,15 -61,18 -86,9 -43,-22 -68,-96 -65,-154 3,-43 -34,-83 -80,-89 -120,-7 -228,-53 -326,-133 -37,-31 -68,-61 -93,-89 25,0 50,0 80,-6 62,-13 127,-34 198,-62 129,-52 255,-114 378,-185 93,-52 191,-108 290,-108 74,3 136,25 182,65l-339 194c-40,25 -52,74 -31,114l225 382c-3,12 -6,25 -3,37zm625 702l0 0 -662 -1133 1574 -900 662 1134 -1574 899zm-1426 -653l0 0 -330 0c-46,0 -80,37 -80,80 0,47 34,84 80,84l330 0c43,0 80,-37 80,-84 0,-43 -37,-80 -80,-80zm983 656l0 0 -1313 0c-46,0 -80,37 -80,81 0,46 34,83 80,83l1313 0c46,0 83,-37 83,-83 0,-44 -37,-81 -83,-81zm1336 -1740l0 0c-21,-40 -73,-52 -110,-31 -28,16 -34,31 -34,31l-345 591 -684 0c-43,0 -80,37 -80,84 0,46 37,80 80,80l730 3c0,0 18,3 46,-13 12,-6 22,-18 31,-33l0 3 370 -638 -4 0c13,-25 16,-52 0,-77l0 0zm-2565 1494l0 0c0,46 37,83 80,83l985 0c47,0 80,-37 80,-83 0,-46 -33,-83 -80,-83l-985 0c-43,0 -80,37 -80,83z"/>
   </g>
  </g>
 </g>
</svg>
