<?xml version="1.0" encoding="UTF-8"?>
<!DOCTYPE svg PUBLIC "-//W3C//DTD SVG 1.1//EN" "http://www.w3.org/Graphics/SVG/1.1/DTD/svg11.dtd">
<!-- Creator: CorelDRAW Home & Student X7 -->
<svg xmlns="http://www.w3.org/2000/svg" xml:space="preserve" width="36.1081mm" height="35.2778mm" version="1.1" style="shape-rendering:geometricPrecision; text-rendering:geometricPrecision; image-rendering:optimizeQuality; fill-rule:evenodd; clip-rule:evenodd"
viewBox="0 0 1172 1145"
 xmlns:xlink="http://www.w3.org/1999/xlink">
 <defs>
  <style type="text/css">
   <![CDATA[
    .fil0 {fill:#35B52A;fill-rule:nonzero}
    .fil1 {fill:#707070;fill-rule:nonzero}
   ]]>
  </style>
 </defs>
 <g id="Warstwa_x0020_1">
  <metadata id="CorelCorpID_0Corel-Layer"/>
  <g id="_221378832">
   <g>
    <path class="fil0" d="M1165 783l-235 -371c-8,-12 -24,-17 -37,-9l-551 319c-13,8 -17,24 -10,37l234 372c7,13 24,18 36,10l554 -322c12,-7 17,-23 9,-36z"/>
   </g>
  </g>
  <g id="_221379648">
   <g>
    <path class="fil1" d="M1168 715l-135 -231c5,-2 11,-4 15,-7 13,-7 24,-17 31,-27 15,-20 15,-39 13,-51 0,-1 0,-3 -1,-4 3,-1 6,-2 8,-4 23,-13 39,-37 42,-62 3,-34 -16,-64 -41,-84 14,-39 18,-80 10,-123 -6,-39 -24,-106 -68,-120 -7,-3 -16,-3 -22,2 -7,4 -12,11 -13,19l-1 12c-3,19 -4,26 -15,39 -12,12 -26,25 -42,38 -35,26 -71,50 -108,71 -35,20 -75,43 -98,83 -21,38 -25,78 -12,117l-240 137c-28,-31 -64,-47 -109,-48 -46,0 -86,22 -121,42 -37,21 -76,40 -116,56 -20,8 -38,14 -55,18 -17,3 -23,0 -41,-7l-12 -5c-7,-3 -16,-2 -23,1 -7,4 -11,11 -13,18 -9,45 41,94 71,119 34,28 72,45 113,53 5,31 22,63 53,76 24,11 53,9 76,-4 3,-2 5,-3 8,-5 0,1 1,2 2,3 10,8 27,17 52,14 12,-1 26,-5 39,-12 5,-3 9,-6 14,-10l135 231c7,13 23,17 36,10l558 -319c13,-7 18,-23 10,-36zm-377 -421l0 0c16,-28 47,-46 78,-64 39,-22 77,-47 113,-75 20,-15 36,-29 49,-44 7,-8 12,-15 16,-22 4,12 7,25 10,41 7,40 2,77 -15,112 -7,14 -1,30 12,37 17,8 35,27 33,43 -1,8 -7,17 -16,22 -3,2 -11,6 -19,3 -13,-6 -27,-1 -34,12 -6,12 -3,27 9,35 7,5 11,9 12,13 0,3 -2,7 -4,10 -6,8 -16,15 -22,16 -1,0 -2,0 -3,-1 -3,-3 -7,-5 -11,-6l-72 -124c-8,-13 -24,-17 -37,-10l-111 63c-3,-20 0,-40 12,-61zm-397 489l0 0c1,2 0,2 0,3 -4,5 -15,10 -25,11 -3,0 -8,0 -10,-2 -3,-2 -6,-8 -6,-16 -1,-14 -13,-25 -27,-26 -14,0 -26,10 -27,24 -1,7 -9,12 -12,14 -9,5 -20,6 -28,3 -14,-7 -22,-31 -21,-50 1,-14 -11,-27 -26,-29 -39,-2 -74,-17 -106,-43 -12,-10 -22,-20 -30,-29 8,0 16,0 26,-2 20,-4 41,-11 64,-20 42,-17 83,-37 123,-60 30,-17 62,-35 94,-35 24,1 44,8 59,21l-110 63c-13,8 -17,24 -10,37l73 124c-1,4 -2,8 -1,12zm203 228l0 0 -215 -368 511 -292 215 368 -511 292zm-463 -212l0 0 -107 0c-15,0 -26,12 -26,26 0,15 11,27 26,27l107 0c14,0 26,-12 26,-27 0,-14 -12,-26 -26,-26zm319 213l0 0 -426 0c-15,0 -26,12 -26,26 0,15 11,27 26,27l426 0c15,0 27,-12 27,-27 0,-14 -12,-26 -27,-26zm434 -565l0 0c-7,-13 -24,-17 -36,-10 -9,5 -11,10 -11,10l-112 192 -222 0c-14,0 -26,12 -26,27 0,15 12,26 26,26l237 1c0,0 6,1 15,-4 4,-2 7,-6 10,-11l0 1 120 -207 -1 0c4,-8 5,-17 0,-25zm-833 485l0 0c0,15 12,27 26,27l320 0c15,0 26,-12 26,-27 0,-15 -11,-27 -26,-27l-320 0c-14,0 -26,12 -26,27z"/>
   </g>
  </g>
 </g>
</svg>
