<?xml version="1.0" encoding="UTF-8"?>
<!DOCTYPE svg PUBLIC "-//W3C//DTD SVG 1.1//EN" "http://www.w3.org/Graphics/SVG/1.1/DTD/svg11.dtd">
<!-- Creator: CorelDRAW Home & Student X7 -->
<svg xmlns="http://www.w3.org/2000/svg" xml:space="preserve" width="28.9246mm" height="28.222mm" version="1.1" style="shape-rendering:geometricPrecision; text-rendering:geometricPrecision; image-rendering:optimizeQuality; fill-rule:evenodd; clip-rule:evenodd"
viewBox="0 0 2892 2822"
 xmlns:xlink="http://www.w3.org/1999/xlink">
 <defs>
  <style type="text/css">
   <![CDATA[
    .fil0 {fill:#35B52A;fill-rule:nonzero}
    .fil1 {fill:#707070;fill-rule:nonzero}
   ]]>
  </style>
 </defs>
 <g id="Warstwa_x0020_1">
  <metadata id="CorelCorpID_0Corel-Layer"/>
  <path class="fil0" d="M1592 220c-720,0 -1301,582 -1301,1301 0,720 581,1301 1301,1301 719,0 1300,-581 1300,-1301 0,-719 -581,-1301 -1300,-1301zm169 1699l0 0c-19,70 -276,157 -276,157 -145,-41 -400,-271 -501,-451 -102,-179 -170,-515 -131,-658 0,0 206,-180 278,-158 73,19 230,296 138,349 -92,53 -164,31 -186,104 -20,73 34,165 87,259 51,92 104,184 177,204 73,19 92,-53 184,-104 92,-54 250,225 230,298l0 0z"/>
  <g id="_270282168">
   <g>
    <path class="fil1" d="M1376 291c-601,0 -1088,484 -1088,1085 0,598 487,1085 1088,1085 598,0 1085,-487 1085,-1085 0,-601 -487,-1085 -1085,-1085zm0 2025l0 0c-521,0 -942,-422 -942,-940 0,-521 421,-942 942,-942 518,0 940,421 940,942 0,518 -422,940 -940,940zm0 -2316l0 0c-761,0 -1376,615 -1376,1376 0,758 615,1374 1376,1374 758,0 1374,-616 1374,-1374 0,-761 -616,-1376 -1374,-1376zm0 2604l0 0c-681,0 -1231,-550 -1231,-1228 0,-681 550,-1231 1231,-1231 678,0 1228,550 1228,1231 0,678 -550,1228 -1228,1228z"/>
   </g>
  </g>
  <g id="_270282312">
   <g>
    <path class="fil1" d="M1466 2120l-20 -8c-177,-48 -443,-302 -545,-482 -102,-179 -186,-537 -138,-714l7 -22 17 -15c61,-53 214,-176 310,-176 13,0 22,2 34,4 97,27 204,221 216,330 12,94 -34,135 -63,152 -41,25 -80,37 -109,44 -17,5 -36,10 -41,15 -12,46 39,135 77,205 41,71 92,158 136,170 7,0 24,-14 34,-24 24,-22 53,-49 94,-73 71,-39 155,-7 233,97 53,70 126,201 104,281 -27,92 -191,165 -325,208l-21 8 0 0zm-567 -1146l0 0c-22,136 39,429 128,584 87,155 308,361 436,409 92,-31 184,-77 209,-102 -5,-53 -88,-189 -131,-208 -25,15 -44,31 -61,48 -34,30 -70,63 -131,63 -12,0 -26,0 -41,-4 -102,-29 -162,-136 -223,-240 -58,-102 -118,-211 -92,-313 24,-82 92,-101 141,-116 22,-7 46,-15 72,-27 5,-48 -70,-189 -113,-220 -32,7 -119,63 -194,126z"/>
   </g>
  </g>
 </g>
</svg>
