<?xml version="1.0" encoding="UTF-8"?>
<!DOCTYPE svg PUBLIC "-//W3C//DTD SVG 1.1//EN" "http://www.w3.org/Graphics/SVG/1.1/DTD/svg11.dtd">
<!-- Creator: CorelDRAW Home & Student X7 -->
<svg xmlns="http://www.w3.org/2000/svg" xml:space="preserve" width="28.9289mm" height="28.2221mm" version="1.1" style="shape-rendering:geometricPrecision; text-rendering:geometricPrecision; image-rendering:optimizeQuality; fill-rule:evenodd; clip-rule:evenodd"
viewBox="0 0 1194 1165"
 xmlns:xlink="http://www.w3.org/1999/xlink">
 <defs>
  <style type="text/css">
   <![CDATA[
    .fil0 {fill:#35B52A;fill-rule:nonzero}
    .fil1 {fill:#707070;fill-rule:nonzero}
   ]]>
  </style>
 </defs>
 <g id="Warstwa_x0020_1">
  <metadata id="CorelCorpID_0Corel-Layer"/>
  <path class="fil0" d="M657 91c-297,0 -537,240 -537,537 0,297 240,537 537,537 297,0 537,-240 537,-537 0,-297 -240,-537 -537,-537zm70 701l0 0c-8,29 -114,65 -114,65 -60,-17 -165,-112 -207,-186 -42,-74 -70,-213 -54,-272 0,0 85,-74 115,-65 30,8 95,122 57,144 -38,22 -68,13 -77,43 -8,30 14,68 36,107 21,38 43,76 73,84 30,8 38,-22 76,-43 38,-22 103,93 95,123z"/>
  <g id="_270282168">
   <g>
    <path class="fil1" d="M568 120c-248,0 -449,200 -449,448 0,247 201,448 449,448 247,0 448,-201 448,-448 0,-248 -201,-448 -448,-448zm0 836l0 0c-215,0 -389,-174 -389,-388 0,-215 174,-389 389,-389 214,0 388,174 388,389 0,214 -174,388 -388,388zm0 -956l0 0c-314,0 -568,254 -568,568 0,313 254,567 568,567 313,0 567,-254 567,-567 0,-314 -254,-568 -567,-568zm0 1075l0 0c-281,0 -508,-227 -508,-507 0,-281 227,-508 508,-508 280,0 507,227 507,508 0,280 -227,507 -507,507z"/>
   </g>
  </g>
  <g id="_270282312">
   <g>
    <path class="fil1" d="M605 875l-8 -3c-73,-20 -183,-125 -225,-199 -42,-74 -77,-222 -57,-295l3 -9 7 -6c25,-22 88,-73 128,-73 5,0 9,1 14,2 40,11 84,91 89,136 5,39 -14,56 -26,63 -17,10 -33,15 -45,18 -7,2 -15,4 -17,6 -5,19 16,56 32,85 17,29 38,65 56,70 3,0 10,-6 14,-10 10,-9 22,-20 39,-30 29,-16 64,-3 96,40 22,29 52,83 43,116 -11,38 -79,68 -134,86l-9 3zm-234 -473l0 0c-9,56 16,177 53,241 36,64 127,149 180,169 38,-13 76,-32 86,-42 -2,-22 -36,-78 -54,-86 -10,6 -18,13 -25,20 -14,12 -29,26 -54,26 -5,0 -11,0 -17,-2 -42,-12 -67,-56 -92,-99 -24,-42 -49,-87 -38,-129 10,-34 38,-42 58,-48 9,-3 19,-6 30,-11 2,-20 -29,-78 -47,-91 -13,3 -49,26 -80,52z"/>
   </g>
  </g>
 </g>
</svg>
